<svg width="80" height="80" viewBox="0 0 80 80" fill="none" xmlns="http://www.w3.org/2000/svg">
<path d="M73.9999 58.7783L46.6718 11.319C45.9889 10.1562 45.014 9.19214 43.8437 8.52227C42.6734 7.8524 41.3484 7.5 39.9999 7.5C38.6515 7.5 37.3265 7.8524 36.1562 8.52227C34.9859 9.19214 34.011 10.1562 33.3281 11.319L5.99993 58.7783C5.34286 59.903 4.99658 61.1821 4.99658 62.4846C4.99658 63.7871 5.34286 65.0662 5.99993 66.1908C6.67409 67.3606 7.64734 68.3299 8.81981 68.9994C9.99229 69.6688 11.3218 70.0142 12.6718 70.0002H67.3281C68.6771 70.0131 70.0052 69.6672 71.1765 68.9978C72.3478 68.3284 73.32 67.3597 73.9937 66.1908C74.6517 65.0667 74.9991 63.7879 75.0002 62.4854C75.0013 61.1829 74.6561 59.9035 73.9999 58.7783ZM69.6656 63.6877C69.4273 64.0941 69.0853 64.4298 68.6745 64.6605C68.2638 64.8911 67.7991 65.0084 67.3281 65.0002H12.6718C12.2008 65.0084 11.7361 64.8911 11.3253 64.6605C10.9146 64.4298 10.5725 64.0941 10.3343 63.6877C10.1185 63.3223 10.0047 62.9058 10.0047 62.4815C10.0047 62.0571 10.1185 61.6406 10.3343 61.2752L37.6624 13.8158C37.9055 13.4114 38.2491 13.0767 38.6598 12.8443C39.0705 12.612 39.5343 12.4899 40.0062 12.4899C40.4781 12.4899 40.9419 12.612 41.3526 12.8443C41.7633 13.0767 42.1069 13.4114 42.3499 13.8158L69.6781 61.2752C69.892 61.6417 70.0036 62.0588 70.0014 62.4832C69.9992 62.9075 69.8833 63.3235 69.6656 63.6877ZM37.4999 45.0002V32.5002C37.4999 31.8372 37.7633 31.2013 38.2322 30.7324C38.701 30.2636 39.3369 30.0002 39.9999 30.0002C40.663 30.0002 41.2989 30.2636 41.7677 30.7324C42.2365 31.2013 42.4999 31.8372 42.4999 32.5002V45.0002C42.4999 45.6632 42.2365 46.2991 41.7677 46.768C41.2989 47.2368 40.663 47.5002 39.9999 47.5002C39.3369 47.5002 38.701 47.2368 38.2322 46.768C37.7633 46.2991 37.4999 45.6632 37.4999 45.0002ZM43.7499 56.2502C43.7499 56.9919 43.53 57.7169 43.1179 58.3336C42.7059 58.9503 42.1202 59.4309 41.435 59.7148C40.7498 59.9986 39.9958 60.0728 39.2683 59.9282C38.5409 59.7835 37.8727 59.4263 37.3483 58.9019C36.8238 58.3774 36.4667 57.7092 36.322 56.9818C36.1773 56.2544 36.2516 55.5004 36.5354 54.8151C36.8192 54.1299 37.2999 53.5443 37.9165 53.1322C38.5332 52.7201 39.2583 52.5002 39.9999 52.5002C40.9945 52.5002 41.9483 52.8953 42.6516 53.5986C43.3548 54.3018 43.7499 55.2556 43.7499 56.2502Z" fill="#F6A350"/>
</svg>
