<svg width="66" height="66" viewBox="0 0 66 66" fill="none" xmlns="http://www.w3.org/2000/svg">
<path d="M44.7688 24.7688L36.5344 33L44.7688 41.2312C45.001 41.4635 45.1853 41.7393 45.311 42.0428C45.4367 42.3462 45.5014 42.6715 45.5014 43C45.5014 43.3285 45.4367 43.6538 45.311 43.9572C45.1853 44.2607 45.001 44.5365 44.7688 44.7688C44.5365 45.001 44.2607 45.1853 43.9573 45.311C43.6538 45.4367 43.3285 45.5014 43 45.5014C42.6715 45.5014 42.3463 45.4367 42.0428 45.311C41.7393 45.1853 41.4635 45.001 41.2313 44.7688L33 36.5344L24.7688 44.7688C24.5365 45.001 24.2607 45.1853 23.9573 45.311C23.6538 45.4367 23.3285 45.5014 23 45.5014C22.6715 45.5014 22.3463 45.4367 22.0428 45.311C21.7393 45.1853 21.4635 45.001 21.2313 44.7688C20.999 44.5365 20.8147 44.2607 20.689 43.9572C20.5633 43.6538 20.4986 43.3285 20.4986 43C20.4986 42.6715 20.5633 42.3462 20.689 42.0428C20.8147 41.7393 20.999 41.4635 21.2313 41.2312L29.4656 33L21.2313 24.7688C20.7622 24.2997 20.4986 23.6634 20.4986 23C20.4986 22.3366 20.7622 21.7003 21.2313 21.2312C21.7004 20.7621 22.3366 20.4986 23 20.4986C23.6634 20.4986 24.2997 20.7621 24.7688 21.2312L33 29.4656L41.2313 21.2312C41.4635 20.999 41.7393 20.8147 42.0428 20.689C42.3463 20.5633 42.6715 20.4986 43 20.4986C43.3285 20.4986 43.6538 20.5633 43.9573 20.689C44.2607 20.8147 44.5365 20.999 44.7688 21.2312C45.001 21.4635 45.1853 21.7393 45.311 22.0428C45.4367 22.3462 45.5014 22.6715 45.5014 23C45.5014 23.3285 45.4367 23.6538 45.311 23.9572C45.1853 24.2607 45.001 24.5365 44.7688 24.7688ZM65.5 33C65.5 39.4279 63.5939 45.7114 60.0228 51.056C56.4516 56.4006 51.3758 60.5662 45.4372 63.0261C39.4986 65.4859 32.964 66.1295 26.6596 64.8755C20.3552 63.6215 14.5643 60.5262 10.019 55.981C5.47384 51.4358 2.37851 45.6448 1.12449 39.3404C-0.129527 33.0361 0.514082 26.5014 2.97393 20.5628C5.43378 14.6242 9.59938 9.54838 14.944 5.97724C20.2886 2.40609 26.5721 0.5 33 0.5C41.6168 0.509099 49.878 3.93612 55.9709 10.0291C62.0639 16.122 65.4909 24.3833 65.5 33ZM60.5 33C60.5 27.561 58.8872 22.2442 55.8654 17.7218C52.8437 13.1995 48.5488 9.67472 43.5238 7.59331C38.4988 5.5119 32.9695 4.96731 27.635 6.0284C22.3006 7.0895 17.4005 9.70862 13.5546 13.5546C9.70863 17.4005 7.08951 22.3005 6.02842 27.635C4.96733 32.9695 5.51192 38.4988 7.59333 43.5238C9.67474 48.5488 13.1995 52.8437 17.7218 55.8654C22.2442 58.8872 27.561 60.5 33 60.5C40.2909 60.4917 47.2809 57.5918 52.4363 52.4363C57.5918 47.2808 60.4917 40.2909 60.5 33Z" fill="#EB3237"/>
</svg>
